<svg width="11" height="21" fill="none" xmlns="http://www.w3.org/2000/svg"><path d="M.647 12.195h2.172v8.148c0 .362.29.656.647.656L6.923 21a.652.652 0 00.647-.656v-8.148h2.06a.65.65 0 00.641-.575l.43-3.5a.654.654 0 00-.642-.738H7.57c.097-2.162-.375-2.801 1.011-2.801C9.52 4.468 11 4.95 11 3.925V.795a.653.653 0 00-.559-.65A22.906 22.906 0 007.771 0C1.725 0 2.97 6.8 2.822 7.382H.646A.652.652 0 000 8.04v3.5c0 .362.29.656.647.656zm.647-3.5h2.172a.652.652 0 00.647-.655V5.282c0-2.522 1.333-3.969 3.658-3.969.757 0 1.454.038 1.934.077v1.88c-.347.18-3.43-.774-3.43 2.36v2.41c0 .363.29.657.647.657h2.404l-.27 2.187H6.922a.652.652 0 00-.647.656v8.148h-2.16V11.54a.652.652 0 00-.648-.657H1.294V8.696z" fill="#fff"/></svg>