<svg width="19" height="19" fill="none" xmlns="http://www.w3.org/2000/svg"><path d="M9.687 19h-.189a66.042 66.042 0 01-4.204-.116c-1.227-.075-2.347-.499-3.239-1.226-.86-.702-1.448-1.651-1.747-2.82-.26-1.019-.273-2.018-.287-2.985C.011 11.16.002 10.338 0 9.502c.002-.84.012-1.662.021-2.355.014-.967.027-1.966.287-2.985.299-1.17.886-2.118 1.747-2.82C2.947.615 4.067.191 5.295.116A66.201 66.201 0 019.502 0a66.47 66.47 0 014.204.116c1.227.075 2.347.499 3.239 1.226.86.702 1.448 1.65 1.747 2.82.26 1.019.273 2.018.287 2.985.01.693.02 1.515.021 2.351v.004c-.002.835-.012 1.657-.021 2.351-.014.967-.027 1.966-.287 2.985-.299 1.169-.886 2.118-1.747 2.82-.892.727-2.012 1.151-3.24 1.226A65.693 65.693 0 019.688 19zm-.189-1.485a64.81 64.81 0 004.118-.113c.927-.056 1.732-.357 2.39-.894.61-.497 1.03-1.183 1.247-2.037.217-.848.23-1.758.241-2.638.01-.69.02-1.505.022-2.333-.002-.828-.012-1.644-.022-2.333-.012-.88-.024-1.79-.24-2.638-.219-.855-.638-1.54-1.247-2.037-.66-.537-1.464-.838-2.392-.894a64.864 64.864 0 00-4.113-.114 64.686 64.686 0 00-4.117.114c-.928.056-1.733.357-2.392.894-.609.497-1.028 1.182-1.246 2.037-.217.848-.23 1.758-.241 2.638-.01.69-.02 1.506-.022 2.335.002.824.012 1.641.022 2.33.012.88.024 1.79.24 2.638.219.855.638 1.54 1.247 2.038.66.537 1.464.838 2.392.894 1.306.08 2.652.117 4.113.113zm-.035-3.376A4.644 4.644 0 014.824 9.5a4.644 4.644 0 014.639-4.639A4.644 4.644 0 0114.102 9.5a4.644 4.644 0 01-4.64 4.639zm0-7.793A3.158 3.158 0 006.308 9.5a3.158 3.158 0 003.155 3.154A3.158 3.158 0 0012.617 9.5a3.158 3.158 0 00-3.154-3.154zm5.158-2.97a1.113 1.113 0 100 2.227 1.113 1.113 0 000-2.226z" fill="#fff"/></svg>