<svg width="22" height="15" fill="none" xmlns="http://www.w3.org/2000/svg"><path d="M21.145 1.072L14.675 7.5l6.47 6.428c.117-.244.188-.514.188-.803V1.875c0-.289-.07-.559-.188-.803zM19.458 0H1.875c-.289 0-.559.071-.803.188L9.34 8.416c.731.73 1.92.73 2.651 0l8.27-8.228A1.853 1.853 0 0019.458 0zM.188 1.072A1.853 1.853 0 000 1.875v11.25c0 .289.071.559.188.803L6.658 7.5.188 1.072z" fill="#FEFEFE"/><path d="M13.792 8.384l-.916.915a3.128 3.128 0 01-4.419 0l-.915-.915-6.47 6.428c.244.117.514.188.803.188h17.583c.289 0 .56-.071.804-.188l-6.47-6.428z" fill="#FEFEFE"/></svg>