<svg width="18" height="18" fill="none" xmlns="http://www.w3.org/2000/svg"><path d="M13.685 11.907c-.588-.58-1.322-.58-1.907 0-.445.442-.891.884-1.33 1.334-.12.123-.22.15-.367.067-.288-.157-.595-.284-.872-.457-1.292-.813-2.375-1.858-3.334-3.034-.476-.584-.899-1.21-1.195-1.914-.06-.142-.048-.236.068-.352.445-.43.88-.873 1.318-1.315.61-.614.61-1.333-.004-1.951-.348-.352-.696-.697-1.045-1.049-.36-.36-.715-.723-1.078-1.079-.589-.573-1.323-.573-1.907.004-.45.442-.88.895-1.337 1.33-.423.4-.637.891-.682 1.464-.071.933.157 1.813.48 2.671.659 1.776 1.663 3.352 2.88 4.798a17.824 17.824 0 005.903 4.619c1.034.502 2.105.887 3.27.951.802.045 1.498-.157 2.057-.783.382-.427.813-.816 1.217-1.225.6-.607.603-1.34.008-1.94a568.464 568.464 0 00-2.143-2.139z" fill="url(#paint0_linear_51_5422)"/><path d="M12.97 8.922l1.382-.236a6.178 6.178 0 00-1.727-3.333 6.144 6.144 0 00-3.521-1.757l-.195 1.39a4.767 4.767 0 012.727 1.36 4.767 4.767 0 011.334 2.576z" fill="url(#paint1_linear_51_5422)"/><path d="M15.13 2.914A10.192 10.192 0 009.288 0l-.194 1.39a8.837 8.837 0 015.049 2.517 8.83 8.83 0 012.476 4.775L18 8.446a10.265 10.265 0 00-2.87-5.532z" fill="url(#paint2_linear_51_5422)"/><defs><linearGradient id="paint0_linear_51_5422" x1="6.694" y1="15.84" x2="14.754" y2="14.642" gradientUnits="userSpaceOnUse"><stop stop-color="#FFC83E"/><stop offset="1" stop-color="#FF7347"/></linearGradient><linearGradient id="paint1_linear_51_5422" x1="6.694" y1="15.84" x2="14.754" y2="14.642" gradientUnits="userSpaceOnUse"><stop stop-color="#FFC83E"/><stop offset="1" stop-color="#FF7347"/></linearGradient><linearGradient id="paint2_linear_51_5422" x1="6.694" y1="15.84" x2="14.754" y2="14.642" gradientUnits="userSpaceOnUse"><stop stop-color="#FFC83E"/><stop offset="1" stop-color="#FF7347"/></linearGradient></defs></svg>