<svg width="12" height="11" fill="none" xmlns="http://www.w3.org/2000/svg"><path d="M10.692 0H9.57v1.1c0 .22-.187.367-.374.367a.371.371 0 01-.374-.367V0h-5.98v1.1c0 .22-.188.367-.375.367a.371.371 0 01-.374-.367V0H.972C.412 0 0 .477 0 1.1v1.32h11.963V1.1c0-.623-.673-1.1-1.271-1.1zM0 3.19V9.9c0 .66.411 1.1 1.01 1.1h9.719C11.327 11 12 10.523 12 9.9V3.19H0zm3.327 6.16H2.43c-.15 0-.3-.11-.3-.293V8.14c0-.147.113-.293.3-.293h.934c.15 0 .3.11.3.293v.917c-.038.183-.15.293-.337.293zm0-3.3H2.43c-.15 0-.3-.11-.3-.293V4.84c0-.147.113-.293.3-.293h.934c.15 0 .3.11.3.293v.917c-.038.183-.15.293-.337.293zm2.99 3.3h-.934c-.15 0-.299-.11-.299-.293V8.14c0-.147.112-.293.3-.293h.934c.15 0 .299.11.299.293v.917c0 .183-.112.293-.3.293zm0-3.3h-.934c-.15 0-.299-.11-.299-.293V4.84c0-.147.112-.293.3-.293h.934c.15 0 .299.11.299.293v.917c0 .183-.112.293-.3.293zm2.991 3.3h-.934c-.15 0-.3-.11-.3-.293V8.14c0-.147.113-.293.3-.293h.934c.15 0 .3.11.3.293v.917c0 .183-.113.293-.3.293zm0-3.3h-.934c-.15 0-.3-.11-.3-.293V4.84c0-.147.113-.293.3-.293h.934c.15 0 .3.11.3.293v.917c0 .183-.113.293-.3.293z" fill="#FF7B00"/></svg>