<svg width="17" height="17" fill="none" xmlns="http://www.w3.org/2000/svg"><path d="M15.817 9.478c-.496 0-.934.32-1.087.791-.826 2.552-3.221 4.404-6.045 4.404a6.365 6.365 0 01-6.358-6.359c0-2.812 1.837-5.2 4.373-6.035.49-.161.821-.62.821-1.135A1.143 1.143 0 006.027.055C2.535 1.18 0 4.453 0 8.315 0 13.104 3.896 17 8.685 17c3.846 0 7.108-2.515 8.245-5.985a1.171 1.171 0 00-1.113-1.537zM10.638 2.269a6.38 6.38 0 014.088 4.078c.157.48.604.804 1.11.804h.023a1.141 1.141 0 001.086-1.49A8.706 8.706 0 0011.357.06 1.154 1.154 0 009.85 1.157v.025c0 .495.319.934.79 1.087z" fill="#F28925"/><circle cx="8.5" cy="8.5" r="2.5" fill="#F28925"/></svg>