<svg width="22" height="16" fill="none" xmlns="http://www.w3.org/2000/svg"><path d="M11 15.992h-.007c-.664-.005-6.532-.058-8.195-.508a3.4 3.4 0 01-2.392-2.39C-.03 11.46-.002 8.314 0 8.063c-.002-.25-.03-3.42.403-5.067l.002-.005A3.472 3.472 0 012.796.586l.008-.003c1.644-.432 7.524-.485 8.19-.49h.011c.666.005 6.55.059 8.197.51a3.4 3.4 0 012.39 2.386c.451 1.648.41 4.826.405 5.094.003.264.03 3.38-.403 5.022l-.001.005a3.4 3.4 0 01-2.394 2.391l-.005.001c-1.643.432-7.524.485-8.189.49H11zM2.065 3.438C1.684 4.89 1.72 8.02 1.72 8.053v.023c-.011.868.029 3.382.346 4.572.154.57.606 1.022 1.18 1.177 1.226.332 6.006.436 7.753.448 1.752-.012 6.539-.114 7.756-.432a1.677 1.677 0 001.178-1.176c.317-1.208.357-3.71.345-4.572v-.028c.016-.878-.015-3.422-.344-4.622V3.44a1.677 1.677 0 00-1.181-1.179c-1.215-.332-6.003-.436-7.754-.449-1.75.013-6.532.114-7.754.432a1.724 1.724 0 00-1.18 1.194zm6.743 8.085v-6.96l6.015 3.48-6.015 3.48z" fill="#fff"/></svg>