<svg width="16" height="16" fill="none" xmlns="http://www.w3.org/2000/svg"><path d="M10 8.667a.666.666 0 00-.667.666V12a.667.667 0 01-.666.667 2 2 0 01-2-2v-8c0-.57-.363-1.078-.908-1.268-.037-.012-.028-.066.01-.066h2.898c.368 0 .666.3.666.667v2a.666.666 0 101.333 0V2c0-1.103-.897-2-2-2H1.5c-.049 0-.095.009-.143.002A1.335 1.335 0 000 1.333v12c0 .57.363 1.078.908 1.268l4.012 1.337c.136.042.271.062.413.062.736 0 1.334-.598 1.334-1.333 0-.368.298-.667.666-.667h1.334c1.102 0 2-.897 2-2V9.333A.666.666 0 0010 8.667z" fill="#45515F"/><path d="M15.805 6.195L13.138 3.53A.666.666 0 0012 4a2 2 0 01-2 2h-.667a.667.667 0 000 1.333H10a2 2 0 012 2 .668.668 0 001.138.472l2.667-2.667a.666.666 0 000-.943z" fill="#45515F"/></svg>