<svg width="189" height="46" fill="none" xmlns="http://www.w3.org/2000/svg"><path d="M53.08 37c-.205 0-.364-.056-.476-.168a.707.707 0 01-.168-.476V18.072c0-.205.056-.364.168-.476.112-.13.27-.196.476-.196h11.424c.205 0 .364.065.476.196.112.112.168.27.168.476v1.12c0 .205-.056.364-.168.476-.112.112-.27.168-.476.168h-9.352v6.524h8.792c.205 0 .364.065.476.196.112.112.168.27.168.476v1.12a.707.707 0 01-.168.476c-.112.112-.27.168-.476.168h-8.792v7.56a.648.648 0 01-.196.476c-.112.112-.27.168-.476.168h-1.4zm15.85 0a.707.707 0 01-.475-.168.707.707 0 01-.168-.476V23.084c0-.187.056-.336.168-.448.13-.13.29-.196.476-.196h1.344a.56.56 0 01.448.196.605.605 0 01.168.448v13.272a.707.707 0 01-.168.476.605.605 0 01-.448.168H68.93zm-.223-17.276a.707.707 0 01-.476-.168.707.707 0 01-.168-.476v-1.512c0-.187.056-.336.168-.448.13-.13.29-.196.476-.196h1.764a.56.56 0 01.448.196.56.56 0 01.196.448v1.512a.648.648 0 01-.196.476.605.605 0 01-.448.168h-1.764zM75.712 37a.707.707 0 01-.476-.168.707.707 0 01-.168-.476V23.112c0-.187.056-.345.168-.476.13-.13.29-.196.476-.196H77c.187 0 .345.065.476.196.13.13.196.29.196.476v1.232a3.554 3.554 0 011.54-1.428c.653-.317 1.437-.476 2.352-.476h1.12a.56.56 0 01.448.196.605.605 0 01.168.448v1.148a.605.605 0 01-.168.448.605.605 0 01-.448.168h-1.68c-1.008 0-1.801.299-2.38.896-.579.579-.868 1.372-.868 2.38v8.232a.648.648 0 01-.196.476.707.707 0 01-.476.168h-1.372zm15.515.28c-1.922 0-3.453-.588-4.592-1.764-1.138-1.195-1.764-2.819-1.876-4.872-.018-.243-.028-.55-.028-.924 0-.392.01-.71.028-.952.075-1.325.383-2.483.924-3.472.542-1.008 1.279-1.783 2.212-2.324.952-.541 2.063-.812 3.332-.812 1.419 0 2.604.299 3.556.896.971.597 1.708 1.447 2.212 2.548.504 1.101.756 2.39.756 3.864v.476c0 .205-.065.364-.196.476a.606.606 0 01-.448.168H87.42v.252c.038.765.206 1.484.504 2.156a4.007 4.007 0 001.288 1.596c.56.41 1.232.616 2.016.616.672 0 1.232-.103 1.68-.308.448-.205.812-.43 1.092-.672.28-.261.467-.457.56-.588.168-.243.299-.383.392-.42.094-.056.243-.084.448-.084h1.344c.187 0 .336.056.448.168.131.093.187.233.168.42-.018.28-.168.625-.448 1.036-.28.392-.681.784-1.204 1.176-.522.392-1.157.719-1.904.98-.746.243-1.605.364-2.576.364zm-3.808-8.624h7.672v-.084c0-.84-.158-1.587-.476-2.24a3.54 3.54 0 00-1.316-1.54c-.578-.392-1.269-.588-2.072-.588-.802 0-1.493.196-2.072.588-.56.373-.989.887-1.288 1.54-.298.653-.448 1.4-.448 2.24v.084zM101.8 37a.683.683 0 01-.504-.196.685.685 0 01-.196-.504V18.1c0-.205.066-.373.196-.504a.683.683 0 01.504-.196h2.632c.28 0 .486.075.616.224.15.15.243.261.28.336l5.18 9.464 5.18-9.464c.038-.075.122-.187.252-.336.15-.15.364-.224.644-.224h2.604a.68.68 0 01.504.196c.131.13.196.299.196.504v18.2a.681.681 0 01-.196.504.68.68 0 01-.504.196h-2.856a.65.65 0 01-.476-.196.685.685 0 01-.196-.504V25.016l-3.556 6.636a1.272 1.272 0 01-.336.448c-.149.13-.354.196-.616.196h-1.316c-.242 0-.438-.065-.588-.196a1.69 1.69 0 01-.364-.448l-3.528-6.636V36.3a.681.681 0 01-.196.504.68.68 0 01-.504.196h-2.856zm28.598.28c-1.55 0-2.847-.252-3.892-.756-1.046-.523-1.848-1.26-2.408-2.212-.542-.952-.84-2.063-.896-3.332a25.055 25.055 0 01-.028-1.26c0-.485.009-.905.028-1.26.056-1.288.373-2.399.952-3.332.578-.952 1.39-1.68 2.436-2.184 1.045-.523 2.314-.784 3.808-.784 1.474 0 2.734.261 3.78.784 1.045.504 1.857 1.232 2.436 2.184.578.933.905 2.044.98 3.332.018.355.028.775.028 1.26 0 .467-.01.887-.028 1.26-.075 1.27-.392 2.38-.952 3.332-.542.952-1.335 1.69-2.38 2.212-1.046.504-2.334.756-3.864.756zm0-3.108c.914 0 1.596-.28 2.044-.84.466-.56.728-1.39.784-2.492.018-.28.028-.653.028-1.12 0-.467-.01-.84-.028-1.12-.056-1.083-.318-1.904-.784-2.464-.448-.579-1.13-.868-2.044-.868-.915 0-1.606.29-2.072.868-.467.56-.728 1.381-.784 2.464-.019.28-.028.653-.028 1.12 0 .467.009.84.028 1.12.056 1.101.317 1.932.784 2.492.466.56 1.157.84 2.072.84zM141.221 37a.744.744 0 01-.504-.196.681.681 0 01-.196-.504V23.14c0-.205.065-.373.196-.504a.744.744 0 01.504-.196h2.744c.205 0 .373.065.504.196.131.13.196.299.196.504v1.092c.485-.597 1.111-1.092 1.876-1.484.784-.392 1.717-.588 2.8-.588 1.101 0 2.072.252 2.912.756.84.485 1.493 1.204 1.96 2.156.467.933.7 2.072.7 3.416V36.3a.681.681 0 01-.196.504.683.683 0 01-.504.196h-2.968a.683.683 0 01-.504-.196.681.681 0 01-.196-.504v-7.644c0-.99-.243-1.755-.728-2.296-.467-.56-1.157-.84-2.072-.84-.877 0-1.577.28-2.1.84-.504.541-.756 1.307-.756 2.296V36.3a.681.681 0 01-.196.504.683.683 0 01-.504.196h-2.968zm23.543.28c-2.147 0-3.855-.597-5.124-1.792-1.251-1.195-1.913-2.93-1.988-5.208v-.588-.588c.075-1.456.401-2.697.98-3.724a5.763 5.763 0 012.436-2.38c1.045-.56 2.268-.84 3.668-.84 1.587 0 2.903.327 3.948.98a5.962 5.962 0 012.352 2.632c.541 1.101.812 2.37.812 3.808v.644a.744.744 0 01-.196.504.683.683 0 01-.504.196h-9.128v.196c.019.597.131 1.148.336 1.652.205.485.504.877.896 1.176.411.299.905.448 1.484.448.448 0 .821-.065 1.12-.196a3.275 3.275 0 001.176-.952c.168-.205.299-.327.392-.364.112-.056.271-.084.476-.084h2.968a.57.57 0 01.42.168.456.456 0 01.168.42c-.019.317-.177.7-.476 1.148-.28.43-.7.859-1.26 1.288-.56.41-1.26.756-2.1 1.036-.821.28-1.773.42-2.856.42zm-2.744-8.932h5.46v-.084c0-.653-.112-1.223-.336-1.708-.205-.504-.513-.896-.924-1.176-.411-.28-.905-.42-1.484-.42s-1.073.14-1.484.42c-.392.28-.7.672-.924 1.176-.205.485-.308 1.055-.308 1.708v.084zm14.685 13.972a.636.636 0 01-.42-.168.57.57 0 01-.14-.588c.019-.056.047-.13.084-.224l2.184-5.236-5.376-12.684a1.096 1.096 0 01-.084-.364.683.683 0 01.196-.42.53.53 0 01.42-.196h2.744c.224 0 .392.065.504.196.112.112.196.233.252.364l3.472 8.652L184.097 23c.075-.15.168-.28.28-.392.112-.112.29-.168.532-.168h2.66a.53.53 0 01.42.196.503.503 0 01.196.392c0 .093-.028.224-.084.392l-7.924 18.34c-.074.15-.177.28-.308.392-.112.112-.289.168-.532.168h-2.632z" fill="#45515F"/><path opacity=".9" d="M37 30.924c.012-9.07-7.877-21.263-7.877-21.263.2 1.367.126 2.76-.218 4.098a8.973 8.973 0 01-2.02 3.1 17.222 17.222 0 00-2.614-8.645A26.475 26.475 0 0016.111 0a30.277 30.277 0 01-.257 8.477c-1.382 6.49-5.726 9.603-11.058 15.366C2.558 26.422-.629 31.449.108 36.71c.115.845.323 1.675.62 2.475.315.823.674 1.629 1.077 2.413a8.027 8.027 0 002.66 3.016 7.961 7.961 0 003.782 1.337c.04 0 .841.034 1.083.034L28.392 46c.235 0 .611 0 .769-.026l.104-.014c.757-.28 7.719-3.161 7.735-15.036z" fill="#FF8300"/><path opacity=".9" fill-rule="evenodd" clip-rule="evenodd" d="M29.146 9.807c.2 1.343.126 2.712-.217 4.027a8.805 8.805 0 01-2.017 3.05 16.75 16.75 0 00-2.61-8.5A22.424 22.424 0 0023.306 7c-1.765 5.161-5.745 8.148-10.517 13.228-2.234 2.538-5.416 7.478-4.68 12.651.018.129.06.33.126.593a11.26 11.26 0 003.988 6.035 11.436 11.436 0 006.864 2.402l4.516.09h1.828a11.525 11.525 0 008.088-3.205A11.316 11.316 0 0037 30.883v-.165c.022-8.924-7.854-20.911-7.854-20.911z" fill="#FFA511"/></svg>