<svg width="56" height="56" fill="none" xmlns="http://www.w3.org/2000/svg"><path fill-rule="evenodd" clip-rule="evenodd" d="M49.95 37.349c0 13.822-12.07 17.059-15.134 17.657-.24.048-.374.077-.604.104-.092.01-.311.015-.449.015l-11.13-.008c-.14 0-.609-.019-.632-.02a25.99 25.99 0 01-2.532-.32c-4.396-.76-12.422-3.158-13.297-10.602-.732-6.23 1.93-9.34 5.274-13.499 2.695-3.351.584-8.311.567-8.358.07.038 4.542 2.497 5.61 4.602.546.997.984 2.05 1.306 3.14-.02-.171-.956-7.889 3.034-13.078 4.035-5.25 4.882-6.859 4.958-9.543A17.935 17.935 0 0025.163.875a31.364 31.364 0 019.683 9.683 20.19 20.19 0 013.101 10.198 10.573 10.573 0 002.397-3.657 12.18 12.18 0 00.26-4.832l2.466 4.2c2.768 5.072 6.88 13.787 6.88 20.882z" fill="#D75C1E"/><path fill-rule="evenodd" clip-rule="evenodd" d="M49.95 37.349c0-7.095-4.112-15.81-6.884-20.876l-2.466-4.2c.238 1.612.15 3.255-.259 4.832a10.542 10.542 0 01-2.398 3.657 20.183 20.183 0 00-3.1-10.197A36.342 36.342 0 0031.5 6.253c-.254 2.21-1.33 4.01-4.9 8.647-3.992 5.189-3.056 12.906-3.033 13.078a15.987 15.987 0 00-1.306-3.142 9.414 9.414 0 00-2.726-2.75 23.158 23.158 0 00-.61 7.974 15.987 15.987 0 00-1.305-3.141 3.944 3.944 0 00-.402-.622 5.997 5.997 0 01-1.134 2.297c-3.344 4.158-6.006 7.268-5.275 13.498.875 7.445 8.9 9.843 13.3 10.602.943.169 1.895.283 2.851.34l11.793.009h.007l.15-.023c.976-.16 1.939-.395 2.88-.7 4.04-2.433 8.16-6.896 8.16-14.971z" fill="#F60"/><path d="M38.79 46.378c.006-5.262-4.6-12.337-4.6-12.337a6 6 0 01-.127 2.378 5.206 5.206 0 01-1.18 1.799 9.95 9.95 0 00-1.525-5.017 15.41 15.41 0 00-4.765-4.766 17.464 17.464 0 01-.15 4.919c-.807 3.766-3.343 5.572-6.456 8.915-1.306 1.497-3.167 4.414-2.737 7.467.068.49.189.972.362 1.436.184.478.394.945.629 1.4a4.666 4.666 0 003.761 2.526c.024 0 .491.02.633.02l11.128.008c.138 0 .357 0 .45-.015l.06-.008c.442-.162 4.507-1.834 4.516-8.725z" fill="#FF8300"/><path fill-rule="evenodd" clip-rule="evenodd" d="M34.19 34.04c.117.794.074 1.602-.127 2.377a5.2 5.2 0 01-1.18 1.8 9.951 9.951 0 00-1.525-5.016 13.248 13.248 0 00-.584-.817c-1.032 3.046-3.36 4.81-6.15 7.808-1.307 1.498-3.168 4.413-2.737 7.466.01.076.035.195.073.35a6.65 6.65 0 006.347 4.98l2.641.053h1.069a6.708 6.708 0 006.766-6.561v-.097c.013-5.267-4.593-12.342-4.593-12.342z" fill="#FFA511"/></svg>