<svg width="17" height="19" fill="none" xmlns="http://www.w3.org/2000/svg"><path d="M8.501 0c-2.713 0-4.93 2.219-4.93 4.933S5.787 9.866 8.5 9.866c2.713 0 4.931-2.219 4.931-4.933S11.214 0 8.502 0z" fill="url(#paint0_linear_51_5424)"/><path d="M16.964 13.808a4.602 4.602 0 00-.496-.904c-.99-1.465-2.519-2.435-4.242-2.672-.215-.021-.452.022-.624.151a5.186 5.186 0 01-3.1 1.013A5.186 5.186 0 015.4 10.383a.807.807 0 00-.625-.15 6.085 6.085 0 00-4.242 2.67c-.194.28-.366.604-.495.905a.458.458 0 00.022.41c.172.301.387.603.58.861.302.41.625.776.991 1.12.302.302.646.582.99.862A9.753 9.753 0 008.48 19c2.11 0 4.156-.668 5.857-1.939a9.47 9.47 0 00.99-.861c.345-.345.69-.711.99-1.12.216-.28.41-.56.582-.862.108-.13.13-.28.065-.41z" fill="url(#paint1_linear_51_5424)"/><defs><linearGradient id="paint0_linear_51_5424" x1="6.322" y1="16.72" x2="13.968" y2="15.704" gradientUnits="userSpaceOnUse"><stop stop-color="#FFC83E"/><stop offset="1" stop-color="#FF7347"/></linearGradient><linearGradient id="paint1_linear_51_5424" x1="6.322" y1="16.72" x2="13.968" y2="15.704" gradientUnits="userSpaceOnUse"><stop stop-color="#FFC83E"/><stop offset="1" stop-color="#FF7347"/></linearGradient></defs></svg>