<svg width="19" height="19" fill="none" xmlns="http://www.w3.org/2000/svg"><path d="M14.445 12.569c-.62-.613-1.396-.613-2.012 0-.47.466-.941.933-1.404 1.407-.126.13-.233.158-.387.072-.305-.166-.629-.3-.922-.483-1.364-.858-2.506-1.96-3.519-3.202-.502-.617-.948-1.277-1.26-2.02-.064-.15-.052-.25.07-.372.47-.455.93-.922 1.392-1.388.645-.648.645-1.408-.004-2.06-.368-.372-.735-.735-1.103-1.107-.38-.38-.755-.763-1.139-1.139-.62-.605-1.395-.605-2.012.004-.475.467-.93.945-1.412 1.404-.446.423-.672.94-.72 1.546C-.06 6.215.18 7.144.52 8.05c.696 1.874 1.755 3.538 3.04 5.064a18.816 18.816 0 006.232 4.875c1.09.53 2.222.937 3.451 1.005.846.047 1.582-.166 2.17-.827.404-.45.859-.862 1.286-1.293.632-.64.636-1.415.008-2.048a609.322 609.322 0 00-2.262-2.257zM13.69 9.418l1.459-.25a6.52 6.52 0 00-1.823-3.518A6.486 6.486 0 009.61 3.796l-.206 1.466a5.032 5.032 0 012.879 1.436 5.03 5.03 0 011.407 2.72zM15.971 3.076A10.758 10.758 0 009.803 0l-.205 1.467a9.328 9.328 0 015.33 2.657 9.32 9.32 0 012.613 5.04L19 8.917a10.836 10.836 0 00-3.029-5.84z" fill="#FEFEFE"/></svg>