<svg width="29" height="29" fill="none" xmlns="http://www.w3.org/2000/svg"><path d="M12.523 28.993A14.403 14.403 0 01.007 16.477a.85.85 0 01.843-.955h3.435c.414 0 .768.3.838.708a9.34 9.34 0 007.647 7.647.85.85 0 01.708.838v3.435a.85.85 0 01-.955.843zM4.285 13.596H.85a.85.85 0 01-.843-.955C.907 5.435 7.064 0 14.328 0c3.227 0 6.287 1.052 8.849 3.043a.85.85 0 01.08 1.272l-2.429 2.43a.85.85 0 01-1.093.09A9.269 9.269 0 0014.328 5.1a9.314 9.314 0 00-9.205 7.79.85.85 0 01-.838.707zM15.404 28.15v-3.434c0-.415.3-.768.708-.838a9.314 9.314 0 007.79-9.206 9.27 9.27 0 00-1.737-5.406.85.85 0 01.091-1.094l2.429-2.428a.851.851 0 011.272.08A14.298 14.298 0 0129 14.672c0 7.265-5.434 13.422-12.64 14.322a.85.85 0 01-.956-.843z" fill="#fff"/><path d="M11.099 11.104a.85.85 0 00-.85-.85h-1.7a.85.85 0 00-.85.85V17.9c0 .47.381.85.85.85h1.7c.47 0 .85-.38.85-.85v-6.797zM16.197 17.901V9.404a.85.85 0 00-.85-.85h-1.699a.85.85 0 00-.85.85V17.9c0 .47.38.85.85.85h1.7c.469 0 .85-.38.85-.85zM21.296 17.901v-3.399a.85.85 0 00-.85-.85h-1.7a.85.85 0 00-.85.85v3.4c0 .469.381.85.85.85h1.7c.47 0 .85-.381.85-.85z" fill="#fff"/></svg>