<svg width="19" height="19" fill="none" xmlns="http://www.w3.org/2000/svg"><path d="M15.966 9.149a.828.828 0 00-.826-.7h-6.7L7.221 7.02a1.38 1.38 0 00-1.035-.49H1.834a1.066 1.066 0 00-1.04 1.244l.116.675H.834a.827.827 0 00-.632.281.81.81 0 00-.192.662l1.352 8.7a1.08 1.08 0 001.07.908h14.032a.838.838 0 00.632-.288.816.816 0 00.193-.659l-1.323-8.904z" fill="url(#paint0_linear_51_5220)"/><path d="M12.63 2.657H7.39c-.361 0-.654.323-.654.682 0 .36.293.683.654.683h5.241c.363 0 .655-.324.655-.683 0-.359-.293-.682-.655-.682z" fill="url(#paint1_linear_51_5220)"/><path d="M18.805 7.44a.808.808 0 00-.604-.283h-1.487l.339 3.11.808 5.435 1.131-7.627a.801.801 0 00-.187-.635z" fill="url(#paint2_linear_51_5220)"/><path d="M5.477 1.255h9.15v6.16h1.265V.799a.81.81 0 00-.81-.798H4.964a.867.867 0 00-.863.875v4.77h1.376v-4.39z" fill="url(#paint3_linear_51_5220)"/><path d="M12.63 5.165H7.39c-.315 0-.577.247-.64.55.449.113.857.355 1.164.712l.095.103h4.622c.363 0 .655-.324.655-.683 0-.359-.293-.682-.655-.682z" fill="url(#paint4_linear_51_5220)"/><defs><linearGradient id="paint0_linear_51_5220" x1="7.066" y1="16.72" x2="15.574" y2="15.456" gradientUnits="userSpaceOnUse"><stop stop-color="#FFC83E"/><stop offset="1" stop-color="#FF7347"/></linearGradient><linearGradient id="paint1_linear_51_5220" x1="7.066" y1="16.72" x2="15.574" y2="15.456" gradientUnits="userSpaceOnUse"><stop stop-color="#FFC83E"/><stop offset="1" stop-color="#FF7347"/></linearGradient><linearGradient id="paint2_linear_51_5220" x1="7.066" y1="16.72" x2="15.574" y2="15.456" gradientUnits="userSpaceOnUse"><stop stop-color="#FFC83E"/><stop offset="1" stop-color="#FF7347"/></linearGradient><linearGradient id="paint3_linear_51_5220" x1="7.066" y1="16.72" x2="15.574" y2="15.456" gradientUnits="userSpaceOnUse"><stop stop-color="#FFC83E"/><stop offset="1" stop-color="#FF7347"/></linearGradient><linearGradient id="paint4_linear_51_5220" x1="7.066" y1="16.72" x2="15.574" y2="15.456" gradientUnits="userSpaceOnUse"><stop stop-color="#FFC83E"/><stop offset="1" stop-color="#FF7347"/></linearGradient></defs></svg>