<svg width="9" height="10" fill="none" xmlns="http://www.w3.org/2000/svg"><path d="M1.644 10a.34.34 0 01-.239-.1.363.363 0 01-.093-.257V8.329h-.98a.31.31 0 01-.24-.1A.363.363 0 010 7.97V7.43c0-.105.03-.19.093-.258a.31.31 0 01.238-.1h.981v-.728h-.98a.31.31 0 01-.24-.1A.397.397 0 010 5.986V4.914c0-.104.03-.19.093-.257a.294.294 0 01.238-.114h.981V.357c0-.105.031-.19.093-.257a.34.34 0 01.239-.1h3.724c.734 0 1.37.124 1.909.371.548.239.972.6 1.272 1.086.3.486.451 1.1.451 1.843 0 .695-.15 1.267-.45 1.714-.301.448-.725.781-1.273 1-.54.22-1.175.329-1.909.329h-1.59v.728h1.776a.31.31 0 01.238.1c.071.067.106.153.106.258v.542c0 .105-.035.19-.106.258a.31.31 0 01-.238.1H3.778v1.314c0 .105-.031.19-.093.257a.31.31 0 01-.239.1H1.644zm2.094-5.457h1.564c.38 0 .68-.105.901-.314.221-.21.332-.529.332-.958 0-.361-.098-.666-.292-.914-.194-.247-.508-.371-.941-.371H3.738v2.557z" fill="#FF7B00"/></svg>