<svg width="14" height="12" fill="none" xmlns="http://www.w3.org/2000/svg"><path d="M13.511 4.272a.945.945 0 00-.563-.283l-3.397-.44L8.206.532C8.01.09 7.47-.117 7 .067a.896.896 0 00-.496.466L5.159 3.548l-3.397.44c-.506.067-.86.506-.789.981.03.204.137.392.3.529l2.56 2.142-.525 3.363a.839.839 0 00.423.862.96.96 0 001.009-.017l2.615-1.67L9.97 11.85c.422.268.997.165 1.283-.23.13-.18.184-.4.15-.615l-.526-3.364 2.56-2.143a.832.832 0 00.074-1.226zm-3.426 2.885a.414.414 0 00-.148.382l.548 3.6-2.872-1.834a.481.481 0 00-.513 0l-2.89 1.822.563-3.59a.414.414 0 00-.148-.38L1.886 4.839l3.656-.473c.16-.021.296-.12.359-.26L7.36.857a.019.019 0 01.003.006L8.81 4.105c.062.14.199.238.359.259l3.66.494-2.743 2.299z" fill="#FEB300"/></svg>