<svg width="13" height="12" fill="none" xmlns="http://www.w3.org/2000/svg"><path d="M12.703 4.272a.945.945 0 00-.563-.283l-3.397-.44L7.398.532C7.202.09 6.662-.117 6.192.067a.896.896 0 00-.496.466L4.35 3.548l-3.397.44c-.506.067-.86.506-.789.981.03.204.137.392.3.529l2.56 2.142-.525 3.363a.839.839 0 00.423.862.96.96 0 001.009-.017l2.615-1.67 2.615 1.672c.422.268.997.165 1.283-.23.13-.18.184-.4.15-.615l-.527-3.364 2.56-2.143a.832.832 0 00.075-1.226zM9.277 7.157a.414.414 0 00-.148.382l.548 3.6-2.872-1.834a.481.481 0 00-.513 0l-2.89 1.822.562-3.59a.414.414 0 00-.147-.38L1.078 4.839l3.656-.473c.16-.021.296-.12.359-.26L6.553.857a.019.019 0 01.003.006l1.445 3.242c.062.14.199.238.359.259l3.66.494-2.743 2.299z" fill="#C7CED6"/></svg>