<svg width="17" height="18" fill="none" xmlns="http://www.w3.org/2000/svg"><path d="M3.475 18a.609.609 0 01-.45-.175.63.63 0 01-.15-.425v-2.75h-1.9a.578.578 0 01-.425-.175.579.579 0 01-.175-.425v-.775c0-.167.058-.308.175-.425a.578.578 0 01.425-.175h1.9V11.35h-1.9a.578.578 0 01-.425-.175.61.61 0 01-.175-.45v-1.35c0-.183.058-.325.175-.425a.579.579 0 01.425-.175h1.9v-7.65c0-.183.05-.333.15-.45A.61.61 0 013.475.5h6.675c1.317 0 2.458.208 3.425.625.967.4 1.717 1.017 2.25 1.85.533.817.8 1.842.8 3.075 0 1.2-.267 2.192-.8 2.975-.533.767-1.283 1.35-2.25 1.75-.967.383-2.108.575-3.425.575h-3.7v1.325h4.075c.183 0 .325.058.425.175a.578.578 0 01.175.425v.775a.578.578 0 01-.175.425c-.1.117-.242.175-.425.175H6.45v2.75a.579.579 0 01-.175.425.609.609 0 01-.45.175h-2.35zM6.4 8.775h3.625c.967 0 1.708-.225 2.225-.675.533-.467.8-1.15.8-2.05 0-.833-.242-1.5-.725-2-.483-.517-1.25-.775-2.3-.775H6.4v5.5z" fill="#F28925"/></svg>